<?xml version="1.0" encoding="utf-8"?>
<!-- Generator: Adobe Illustrator 19.2.1, SVG Export Plug-In . SVG Version: 6.00 Build 0)  -->
<svg version="1.1" id="layer" xmlns="http://www.w3.org/2000/svg" xmlns:xlink="http://www.w3.org/1999/xlink" x="0px" y="0px"
	 viewBox="0 0 652 652" style="enable-background:new 0 0 652 652;" xml:space="preserve">
<style type="text/css">
	.st0{fill:#E31935;}
</style>
<g>
	<g>
		<g id="Bray_Logo_1_">
			<g>
				<g>
					<path class="st0" d="M591.9,404.3h2.1c1.3,0,2.5-0.4,2.5-1.7s-1.3-1.7-2.5-1.7h-2.1V404.3z M590.2,399.3h4.6
						c2.5,0,3.7,1.3,3.7,3.3c0,1.7-1.3,3.3-2.9,3.3l3.3,5h-2.1l-3.3-5h-1.7v5h-1.7V399.3z M594,413.5c4.6,0,7.9-3.8,7.9-8.3
						c0-4.6-3.3-8.3-7.9-8.3c-4.6,0-7.9,3.8-7.9,8.3C586,409.7,589.4,413.5,594,413.5 M594,395.1c5.4,0,9.6,4.6,9.6,9.6
						c0,5.4-4.6,9.6-9.6,9.6c-5.4,0-9.6-4.6-9.6-9.6C584,399.7,588.5,395.1,594,395.1"/>
					<path class="st0" d="M390.6,306.4c8.8,0,16.7-7.9,16.7-16.7c0-9.6-5.4-19.6-17.5-19.6c-15,0-23.8,12.1-25,16.7
						c-0.4,0.8-0.4,1.3-0.4,2.1v-18.3H311l-3.3,17.5h15.8c4.6,0,8.8,4.6,8.8,9.6v47.9c0,4.6-4.6,9.6-8.8,9.6h-14.2l-4.6,18.3h90.8
						l3.8-18.3h-34.6v-37.9c0-8.8,1.3-14.6,1.3-15c0.8-4.2,2.1-8.3,5.8-12.5c3.3-3.3,4.6-1.7,4.6,0
						C375.6,299.3,381.5,306.4,390.6,306.4"/>
					<path class="st0" d="M464.8,337.6c0,10.8-6.7,19.2-15.4,19.6h-2.1c-6.3,0-9.6-6.3-10.4-10.4c-0.4-2.5-0.4-5.4,0.4-8.3l0,0
						c1.7-11.3,15-23.8,22.5-23.8h1.7c1.7,0,3.3,1.7,3.3,3.3C464.8,318,464.8,337.6,464.8,337.6z M569,271l-3.3,17.5h7.1l0,0
						c0.8,0,2.1,0.4,2.9,0.8c1.3,1.2,1.7,3.3,1.3,6.3L562.7,331l-15-35.4c-0.8-3.8,0.8-7.1,4.6-7.1h7.9l3.3-17.5h-70l-2.1,10.4
						c-0.8-1.3-2.1-2.5-2.5-2.9c-2.1-2.5-4.2-4.6-6.7-5.8c-5.8-4.2-12.1-5-19.2-5c-5.8,0-13.3-0.4-20.8,3.3
						c-3.8,1.7-6.7,4.2-9.6,7.1c-1.3,1.3-2.1,2.5-2.9,3.8c-0.4,0.4-0.8,1.3-0.8,1.7V271h-18.3v49.6l18.3-15
						c0.8-15,10.4-25.4,21.3-25.4h1.7c4.6,0,7.9,1.7,10,4.2l0,0c0,0,2.1,2.1,2.9,5.4l0,0c0,0,1.3,3.3-0.4,6.7l-0.4,0.8
						c-1.3,2.9-4.2,5.8-10,8.3c-18.8,9.2-34.6,16.7-42.5,24.6c-6.3,6.3-8.3,16.3-5.4,25.8c3.3,12.1,15,20,29.6,20
						c12.5,0,22.9-5.4,29.2-15v12.5h52.9l3.8-18.3h-18.7c-2.9,0-6.3-3.3-6.3-6.3v-54.6c0-1.2,0-2.9-0.8-4.2c0-0.8-0.4-1.3-0.8-2.1
						h8.8c1.3,0,7.1,0.8,9.2,6.3c0.4,0.8,31.7,76.3,31.7,76.3c-3.3,14.2-18.3,24.6-31.7,24.6h-29.2l-4.6,18.3h81.3l4.6-18.3h-22.9
						c10.8-6.3,13.3-11.7,18.3-22.1l32.5-77.9c2.5-3.8,4.6-6.3,9.6-7.1h14.2l3.8-17.5H569V271z"/>
					<path class="st0" d="M276.5,330.5c0,10.8,0,15.8-7.9,25.4c-3.3,3.8-10.4,7.9-17.5,7.9c-6.3,0-12.5-1.7-15.8-5.4
						c-0.8-1.7-0.8-5-0.8-6.7v-49.2c0-0.8,0.4-1.7,1.7-2.1c2.5-0.8,5.4-0.8,7.9-0.8c8.3,0,16.7,2.5,22.5,8.3
						C273.1,313.9,276.5,321.8,276.5,330.5L276.5,330.5L276.5,330.5z M234.8,241.8c0-2.5,1.7-4.6,5.4-4.6h9.6
						c11.7,0.8,19.6,12.5,19.6,27.5c0,4.6-0.8,10.8-1.7,14.2c-2.9,8.3-10.8,13.8-24.6,13.3h-6.7c-1.3,0-2.1-0.8-2.1-2.5v-47.9H234.8
						z M280.2,295.1c16.7-6.3,24.6-17.5,24.6-30.8c0-20.4-22.1-37.1-48.8-37.1h-82.1l-4.6,18.3h20.4c6.3,0,10.8,3.8,10.8,10.4v87.5
						c0,5.4-6.7,11.7-11.7,11.7h-18.3l-4.6,18.3H229h25.4c0,0,20.4-0.8,30.4-5.8c17.9-6.7,27.1-19.2,27.1-35
						C311.9,315.1,300.2,300.5,280.2,295.1"/>
					<path class="st0" d="M68.5,352.6c-15,0-27.1-12.9-27.1-27.9s12.1-27.1,27.1-27.1c15.8,0,27.9,12.1,27.9,27.1
						S84.4,352.6,68.5,352.6 M79,277.6v-10.8h36.3v-39.6H22.3v39.2h36.3v10.8c-21.7,5-38.3,24.6-38.3,47.5
						c0,27.1,22.1,48.3,48.3,48.3c27.1,0,48.3-21.2,48.3-48.3C116.9,301.8,101,282.2,79,277.6"/>
				</g>
			</g>
		</g>
	</g>
</g>
</svg>
